<mxfile host="app.diagrams.net" agent="Mozilla/5.0 (Windows NT 10.0; Win64; x64) AppleWebKit/537.36 (KHTML, like Gecko) Chrome/134.0.0.0 Safari/537.36" version="26.1.1">
  <diagram name="Page-1" id="PXdBBdSH1jbpy_lBSpav">
    <mxGraphModel dx="2932" dy="-3" grid="1" gridSize="10" guides="1" tooltips="1" connect="1" arrows="1" fold="1" page="1" pageScale="1" pageWidth="850" pageHeight="1100" math="0" shadow="0">
      <root>
        <mxCell id="0" />
        <mxCell id="1" parent="0" />
        <mxCell id="6Q1wwCRgIi2AKPoYCSTs-1" value="" style="group" parent="1" vertex="1" connectable="0">
          <mxGeometry x="-940" y="1275" width="250" height="350" as="geometry" />
        </mxCell>
        <mxCell id="6Q1wwCRgIi2AKPoYCSTs-2" value="FIR Controller&lt;div&gt;Output Logic State Transition Diagram&lt;/div&gt;" style="rounded=0;whiteSpace=wrap;html=1;" parent="6Q1wwCRgIi2AKPoYCSTs-1" vertex="1">
          <mxGeometry width="250" height="350" as="geometry" />
        </mxCell>
        <mxCell id="6Q1wwCRgIi2AKPoYCSTs-3" value="clk" style="text;html=1;align=center;verticalAlign=middle;resizable=0;points=[];autosize=1;strokeColor=none;fillColor=none;" parent="1" vertex="1">
          <mxGeometry x="-1220" y="1500" width="40" height="30" as="geometry" />
        </mxCell>
        <mxCell id="6Q1wwCRgIi2AKPoYCSTs-4" style="edgeStyle=orthogonalEdgeStyle;rounded=0;orthogonalLoop=1;jettySize=auto;html=1;entryX=0.25;entryY=1;entryDx=0;entryDy=0;" parent="1" source="6Q1wwCRgIi2AKPoYCSTs-5" target="6Q1wwCRgIi2AKPoYCSTs-15" edge="1">
          <mxGeometry relative="1" as="geometry" />
        </mxCell>
        <mxCell id="6Q1wwCRgIi2AKPoYCSTs-5" value="n_rst" style="text;html=1;align=center;verticalAlign=middle;resizable=0;points=[];autosize=1;strokeColor=none;fillColor=none;" parent="1" vertex="1">
          <mxGeometry x="-1174.5" y="1577" width="50" height="30" as="geometry" />
        </mxCell>
        <mxCell id="6Q1wwCRgIi2AKPoYCSTs-6" style="edgeStyle=orthogonalEdgeStyle;rounded=0;orthogonalLoop=1;jettySize=auto;html=1;exitX=0.25;exitY=1;exitDx=0;exitDy=0;entryX=0.75;entryY=1;entryDx=0;entryDy=0;" parent="1" source="6Q1wwCRgIi2AKPoYCSTs-9" target="6Q1wwCRgIi2AKPoYCSTs-11" edge="1">
          <mxGeometry relative="1" as="geometry">
            <Array as="points">
              <mxPoint x="-340" y="1584" />
              <mxPoint x="-340" y="1670" />
              <mxPoint x="-1340" y="1670" />
            </Array>
          </mxGeometry>
        </mxCell>
        <mxCell id="6Q1wwCRgIi2AKPoYCSTs-7" style="edgeStyle=orthogonalEdgeStyle;rounded=0;orthogonalLoop=1;jettySize=auto;html=1;exitX=0.5;exitY=1;exitDx=0;exitDy=0;entryX=0.5;entryY=1;entryDx=0;entryDy=0;" parent="1" source="6Q1wwCRgIi2AKPoYCSTs-9" target="6Q1wwCRgIi2AKPoYCSTs-11" edge="1">
          <mxGeometry relative="1" as="geometry">
            <Array as="points">
              <mxPoint x="-265" y="1720" />
              <mxPoint x="-1390" y="1720" />
            </Array>
          </mxGeometry>
        </mxCell>
        <mxCell id="6Q1wwCRgIi2AKPoYCSTs-8" style="edgeStyle=orthogonalEdgeStyle;rounded=0;orthogonalLoop=1;jettySize=auto;html=1;exitX=0.75;exitY=1;exitDx=0;exitDy=0;entryX=0.25;entryY=1;entryDx=0;entryDy=0;" parent="1" source="6Q1wwCRgIi2AKPoYCSTs-9" target="6Q1wwCRgIi2AKPoYCSTs-11" edge="1">
          <mxGeometry relative="1" as="geometry">
            <Array as="points">
              <mxPoint x="-192" y="1760" />
              <mxPoint x="-1440" y="1760" />
            </Array>
          </mxGeometry>
        </mxCell>
        <mxCell id="6Q1wwCRgIi2AKPoYCSTs-9" value="&lt;div align=&quot;center&quot;&gt;Receiver&lt;/div&gt;" style="rounded=0;whiteSpace=wrap;html=1;align=center;verticalAlign=middle;" parent="1" vertex="1">
          <mxGeometry x="-410" y="1230" width="290" height="354" as="geometry" />
        </mxCell>
        <mxCell id="6Q1wwCRgIi2AKPoYCSTs-10" style="edgeStyle=orthogonalEdgeStyle;rounded=0;orthogonalLoop=1;jettySize=auto;html=1;exitX=1;exitY=0.25;exitDx=0;exitDy=0;entryX=0;entryY=0.25;entryDx=0;entryDy=0;" parent="1" source="6Q1wwCRgIi2AKPoYCSTs-11" target="6Q1wwCRgIi2AKPoYCSTs-15" edge="1">
          <mxGeometry relative="1" as="geometry" />
        </mxCell>
        <mxCell id="6Q1wwCRgIi2AKPoYCSTs-11" value="&lt;div&gt;Next_State Logic&lt;/div&gt;&lt;div&gt;per State Transition Diagram&lt;/div&gt;" style="rounded=0;whiteSpace=wrap;html=1;align=center;verticalAlign=middle;" parent="1" vertex="1">
          <mxGeometry x="-1490" y="1365" width="200" height="170" as="geometry" />
        </mxCell>
        <mxCell id="6Q1wwCRgIi2AKPoYCSTs-12" value="next_state[4:0]" style="text;html=1;align=center;verticalAlign=middle;resizable=0;points=[];autosize=1;strokeColor=none;fillColor=none;" parent="1" vertex="1">
          <mxGeometry x="-1285" y="1371" width="100" height="30" as="geometry" />
        </mxCell>
        <mxCell id="6Q1wwCRgIi2AKPoYCSTs-13" value="state[4:0]" style="text;html=1;align=center;verticalAlign=middle;resizable=0;points=[];autosize=1;strokeColor=none;fillColor=none;" parent="1" vertex="1">
          <mxGeometry x="-1270" y="1460" width="70" height="30" as="geometry" />
        </mxCell>
        <mxCell id="6Q1wwCRgIi2AKPoYCSTs-14" value="" style="group" parent="1" vertex="1" connectable="0">
          <mxGeometry x="-1180" y="1360" width="120" height="180" as="geometry" />
        </mxCell>
        <mxCell id="6Q1wwCRgIi2AKPoYCSTs-15" value="5FFs" style="rounded=0;whiteSpace=wrap;html=1;" parent="6Q1wwCRgIi2AKPoYCSTs-14" vertex="1">
          <mxGeometry width="120" height="180" as="geometry" />
        </mxCell>
        <mxCell id="6Q1wwCRgIi2AKPoYCSTs-16" value="" style="triangle;whiteSpace=wrap;html=1;" parent="6Q1wwCRgIi2AKPoYCSTs-14" vertex="1">
          <mxGeometry y="130" width="30" height="40" as="geometry" />
        </mxCell>
        <mxCell id="6Q1wwCRgIi2AKPoYCSTs-17" style="edgeStyle=orthogonalEdgeStyle;rounded=0;orthogonalLoop=1;jettySize=auto;html=1;exitX=0;exitY=0.5;exitDx=0;exitDy=0;entryX=1;entryY=0.5;entryDx=0;entryDy=0;" parent="1" source="6Q1wwCRgIi2AKPoYCSTs-15" target="6Q1wwCRgIi2AKPoYCSTs-11" edge="1">
          <mxGeometry relative="1" as="geometry" />
        </mxCell>
        <mxCell id="6Q1wwCRgIi2AKPoYCSTs-18" style="edgeStyle=orthogonalEdgeStyle;rounded=0;orthogonalLoop=1;jettySize=auto;html=1;entryX=0;entryY=0.5;entryDx=0;entryDy=0;" parent="1" source="6Q1wwCRgIi2AKPoYCSTs-15" target="6Q1wwCRgIi2AKPoYCSTs-2" edge="1">
          <mxGeometry relative="1" as="geometry" />
        </mxCell>
        <mxCell id="6Q1wwCRgIi2AKPoYCSTs-19" value="state[4:0]" style="text;html=1;align=center;verticalAlign=middle;resizable=0;points=[];autosize=1;strokeColor=none;fillColor=none;" parent="1" vertex="1">
          <mxGeometry x="-1040" y="1418" width="70" height="30" as="geometry" />
        </mxCell>
        <mxCell id="6Q1wwCRgIi2AKPoYCSTs-20" value="overflow" style="text;html=1;align=center;verticalAlign=middle;resizable=0;points=[];autosize=1;strokeColor=none;fillColor=none;" parent="1" vertex="1">
          <mxGeometry x="-610" y="1635" width="70" height="30" as="geometry" />
        </mxCell>
        <mxCell id="6Q1wwCRgIi2AKPoYCSTs-21" value="dr" style="text;html=1;align=center;verticalAlign=middle;resizable=0;points=[];autosize=1;strokeColor=none;fillColor=none;" parent="1" vertex="1">
          <mxGeometry x="-575" y="1688" width="30" height="30" as="geometry" />
        </mxCell>
        <mxCell id="6Q1wwCRgIi2AKPoYCSTs-22" value="lc" style="text;html=1;align=center;verticalAlign=middle;resizable=0;points=[];autosize=1;strokeColor=none;fillColor=none;" parent="1" vertex="1">
          <mxGeometry x="-550" y="1730" width="30" height="30" as="geometry" />
        </mxCell>
        <mxCell id="6Q1wwCRgIi2AKPoYCSTs-23" style="edgeStyle=orthogonalEdgeStyle;rounded=0;orthogonalLoop=1;jettySize=auto;html=1;exitX=1;exitY=0.25;exitDx=0;exitDy=0;entryX=0;entryY=0.25;entryDx=0;entryDy=0;" parent="1" source="6Q1wwCRgIi2AKPoYCSTs-2" target="6Q1wwCRgIi2AKPoYCSTs-9" edge="1">
          <mxGeometry relative="1" as="geometry" />
        </mxCell>
        <mxCell id="6Q1wwCRgIi2AKPoYCSTs-24" value="modwait" style="text;html=1;align=center;verticalAlign=middle;resizable=0;points=[];autosize=1;strokeColor=none;fillColor=none;" parent="1" vertex="1">
          <mxGeometry x="-670" y="1328" width="70" height="30" as="geometry" />
        </mxCell>
        <mxCell id="6Q1wwCRgIi2AKPoYCSTs-25" style="edgeStyle=orthogonalEdgeStyle;rounded=0;orthogonalLoop=1;jettySize=auto;html=1;exitX=1;exitY=0.5;exitDx=0;exitDy=0;entryX=0;entryY=0.5;entryDx=0;entryDy=0;" parent="1" source="6Q1wwCRgIi2AKPoYCSTs-2" target="6Q1wwCRgIi2AKPoYCSTs-9" edge="1">
          <mxGeometry relative="1" as="geometry">
            <Array as="points">
              <mxPoint x="-690" y="1410" />
              <mxPoint x="-550" y="1410" />
              <mxPoint x="-550" y="1407" />
            </Array>
          </mxGeometry>
        </mxCell>
        <mxCell id="6Q1wwCRgIi2AKPoYCSTs-26" value="op[2:0]" style="text;html=1;align=center;verticalAlign=middle;resizable=0;points=[];autosize=1;strokeColor=none;fillColor=none;" parent="1" vertex="1">
          <mxGeometry x="-690" y="1378" width="60" height="30" as="geometry" />
        </mxCell>
        <mxCell id="6Q1wwCRgIi2AKPoYCSTs-27" style="edgeStyle=orthogonalEdgeStyle;rounded=0;orthogonalLoop=1;jettySize=auto;html=1;exitX=1;exitY=0.5;exitDx=0;exitDy=0;entryX=0.007;entryY=0.624;entryDx=0;entryDy=0;entryPerimeter=0;" parent="1" source="6Q1wwCRgIi2AKPoYCSTs-2" target="6Q1wwCRgIi2AKPoYCSTs-9" edge="1">
          <mxGeometry relative="1" as="geometry" />
        </mxCell>
        <mxCell id="6Q1wwCRgIi2AKPoYCSTs-28" value="src1[3:0]" style="text;html=1;align=center;verticalAlign=middle;resizable=0;points=[];autosize=1;strokeColor=none;fillColor=none;" parent="1" vertex="1">
          <mxGeometry x="-690" y="1418" width="70" height="30" as="geometry" />
        </mxCell>
        <mxCell id="6Q1wwCRgIi2AKPoYCSTs-29" style="edgeStyle=orthogonalEdgeStyle;rounded=0;orthogonalLoop=1;jettySize=auto;html=1;exitX=1;exitY=0.75;exitDx=0;exitDy=0;entryX=0.003;entryY=0.87;entryDx=0;entryDy=0;entryPerimeter=0;" parent="1" source="6Q1wwCRgIi2AKPoYCSTs-2" target="6Q1wwCRgIi2AKPoYCSTs-9" edge="1">
          <mxGeometry relative="1" as="geometry" />
        </mxCell>
        <mxCell id="6Q1wwCRgIi2AKPoYCSTs-30" value="src2[3:0]" style="text;html=1;align=center;verticalAlign=middle;resizable=0;points=[];autosize=1;strokeColor=none;fillColor=none;" parent="1" vertex="1">
          <mxGeometry x="-690" y="1470" width="70" height="30" as="geometry" />
        </mxCell>
        <mxCell id="6Q1wwCRgIi2AKPoYCSTs-31" style="edgeStyle=orthogonalEdgeStyle;rounded=0;orthogonalLoop=1;jettySize=auto;html=1;exitX=0.984;exitY=0.631;exitDx=0;exitDy=0;entryX=0;entryY=0.75;entryDx=0;entryDy=0;exitPerimeter=0;" parent="1" source="6Q1wwCRgIi2AKPoYCSTs-2" target="6Q1wwCRgIi2AKPoYCSTs-9" edge="1">
          <mxGeometry relative="1" as="geometry" />
        </mxCell>
        <mxCell id="6Q1wwCRgIi2AKPoYCSTs-32" value="dest[3:0]" style="text;html=1;align=center;verticalAlign=middle;resizable=0;points=[];autosize=1;strokeColor=none;fillColor=none;" parent="1" vertex="1">
          <mxGeometry x="-690" y="1510" width="70" height="30" as="geometry" />
        </mxCell>
        <mxCell id="6Q1wwCRgIi2AKPoYCSTs-33" style="edgeStyle=orthogonalEdgeStyle;rounded=0;orthogonalLoop=1;jettySize=auto;html=1;exitX=0.5;exitY=0;exitDx=0;exitDy=0;entryX=0.25;entryY=0;entryDx=0;entryDy=0;" parent="1" source="6Q1wwCRgIi2AKPoYCSTs-2" target="6Q1wwCRgIi2AKPoYCSTs-9" edge="1">
          <mxGeometry relative="1" as="geometry" />
        </mxCell>
        <mxCell id="6Q1wwCRgIi2AKPoYCSTs-34" value="err" style="text;html=1;align=center;verticalAlign=middle;resizable=0;points=[];autosize=1;strokeColor=none;fillColor=none;" parent="1" vertex="1">
          <mxGeometry x="-660" y="1260" width="40" height="30" as="geometry" />
        </mxCell>
        <mxCell id="6Q1wwCRgIi2AKPoYCSTs-35" style="edgeStyle=orthogonalEdgeStyle;rounded=0;orthogonalLoop=1;jettySize=auto;html=1;exitX=0.25;exitY=0;exitDx=0;exitDy=0;entryX=0.5;entryY=0;entryDx=0;entryDy=0;" parent="1" source="6Q1wwCRgIi2AKPoYCSTs-2" target="6Q1wwCRgIi2AKPoYCSTs-9" edge="1">
          <mxGeometry relative="1" as="geometry">
            <Array as="points">
              <mxPoint x="-877" y="1180" />
              <mxPoint x="-265" y="1180" />
            </Array>
          </mxGeometry>
        </mxCell>
        <mxCell id="6Q1wwCRgIi2AKPoYCSTs-36" value="clear" style="text;html=1;align=center;verticalAlign=middle;resizable=0;points=[];autosize=1;strokeColor=none;fillColor=none;" parent="1" vertex="1">
          <mxGeometry x="-770" y="1148" width="50" height="30" as="geometry" />
        </mxCell>
        <mxCell id="6Q1wwCRgIi2AKPoYCSTs-37" value="cnt_up" style="text;html=1;align=center;verticalAlign=middle;resizable=0;points=[];autosize=1;strokeColor=none;fillColor=none;" parent="1" vertex="1">
          <mxGeometry x="-810" y="1178" width="60" height="30" as="geometry" />
        </mxCell>
        <mxCell id="6Q1wwCRgIi2AKPoYCSTs-38" style="edgeStyle=orthogonalEdgeStyle;rounded=0;orthogonalLoop=1;jettySize=auto;html=1;exitX=0.75;exitY=0;exitDx=0;exitDy=0;entryX=-0.003;entryY=0.158;entryDx=0;entryDy=0;entryPerimeter=0;" parent="1" source="6Q1wwCRgIi2AKPoYCSTs-2" target="6Q1wwCRgIi2AKPoYCSTs-9" edge="1">
          <mxGeometry relative="1" as="geometry">
            <Array as="points">
              <mxPoint x="-752" y="1255" />
              <mxPoint x="-550" y="1255" />
              <mxPoint x="-550" y="1286" />
            </Array>
          </mxGeometry>
        </mxCell>
      </root>
    </mxGraphModel>
  </diagram>
</mxfile>
